<svg width="19" height="19" viewBox="0 0 19 19" fill="none" xmlns="http://www.w3.org/2000/svg">
<path fill-rule="evenodd" clip-rule="evenodd" d="M1.58337 11.0833H3.16671V12.6667H1.58337V11.0833ZM9.50006 14.25H11.0834V15.8333H9.50006V14.25ZM11.0834 15.8333H12.6667H14.2501V17.4167H12.6667H11.0834V15.8333ZM4.75006 12.6667H3.16673V14.25H4.75006V12.6667Z" fill="#FBFBFB"/>
<path fill-rule="evenodd" clip-rule="evenodd" d="M3.16667 6.33333H1.58333V7.91666L0 7.91666V9.49999V11.0833V12.6667V14.25H1.58333V15.8333H3.16667H4.75H6.33333V14.25V12.6667V11.0833H7.91667V9.49999H9.5V7.91666H7.91667L6.33333 7.91666V6.33333H4.75H3.16667ZM6.33333 7.91666V9.49999H4.75V7.91666H6.33333ZM1.58333 12.6667L3.16667 12.6667V14.25H4.75V12.6667H3.16667V11.0833H1.58333V12.6667ZM14.25 9.5H15.8333V11.0833H17.4167V12.6667V14.25V15.8333V17.4167L15.8333 17.4167V19H14.25H12.6667H11.0833H9.5V17.4167L7.91667 17.4167V15.8333V14.25V12.6667V11.0833H9.5V9.5H11.0833V11.0833H12.6667V9.5H14.25ZM9.5 14.25V15.8333H11.0833V17.4167H12.6667H14.25V15.8333H12.6667H11.0833V14.25H9.5Z" fill="#FF5703"/>
<path fill-rule="evenodd" clip-rule="evenodd" d="M17.4167 0H15.8333V1.58333H14.25H12.6667L12.6667 3.16667H11.0833H9.5V4.75H7.91667V6.33333H6.33333V7.91667H4.75V9.5H6.33333V7.91667L7.91667 7.91667V6.33333H9.5V4.75H11.0833H12.6667V3.16667H14.25V4.75V6.33333H12.6667L12.6667 7.91667H11.0833V9.5V11.0833H12.6667V9.5V7.91667L14.25 7.91667V6.33333H15.8333V4.75V3.16667H17.4167H19V1.58333V0H17.4167Z" fill="#FF8303"/>
</svg>
