<svg width="46" height="42" viewBox="0 0 46 42" fill="none" xmlns="http://www.w3.org/2000/svg">
<path fill-rule="evenodd" clip-rule="evenodd" d="M16.6154 0H19.8462H23.0769H26.3077H29.5385V3.23077V6.46154H26.3077V9.69231V12.9231V16.1538H29.5385V19.3846H32.7692H36L36 16.1538H39.2308V12.9231V9.69231H42.4615V12.9231V16.1538V19.3846H45.6923V22.6154V25.8462V29.0769V32.3077V35.5385V38.7692H42.4615V42H39.2308H36V38.7692H32.7692V35.5385H29.5385V38.7692H26.3077V42H23.0769H19.8462V38.7692H16.6154V35.5385H13.3846V38.7692H10.1539V42H6.92309H3.69232V38.7692H0.461548V35.5385V32.3077V29.0769V25.8462V22.6154V19.3846H3.69232V16.1538V12.9231V9.69231H6.92309V12.9231V16.1538H10.1539V19.3846H13.3846H16.6154V16.1538H19.8462L19.8462 12.9231V9.69231L19.8462 6.46154H16.6154V3.23077V0Z" fill="#FFABFF"/>
<path fill-rule="evenodd" clip-rule="evenodd" d="M32.7692 3.23077H36V6.46154L39.2308 6.46154V9.69231V12.9231V16.1539H36V19.3846H32.7692H29.5385V16.1539H26.3077V12.9231V9.69231V6.46154H29.5385V3.23077H32.7692ZM16.6154 3.23077V6.46154H19.8462V9.69231V12.9231V16.1539H16.6154V19.3846H13.3846H10.1539V16.1539H6.9231V12.9231V9.69231V6.46154H10.1539V3.23077H13.3846H16.6154Z" fill="#FBFBFB"/>
<rect x="29.5385" y="12.9231" width="6.46154" height="6.46154" fill="#5757FF"/>
<rect x="10.1539" y="12.9231" width="6.46154" height="6.46154" fill="#5757FF"/>
</svg>
