<svg width="46" height="42" viewBox="0 0 46 42" fill="none" xmlns="http://www.w3.org/2000/svg">
<path fill-rule="evenodd" clip-rule="evenodd" d="M16.3846 0H19.6154H22.8462H26.0769H29.3077V3.23077V6.46154H26.0769V9.69231V12.9231V16.1538H29.3077V19.3846H32.5385H35.7692L35.7692 16.1538H39V12.9231V9.69231H42.2308V12.9231V16.1538V19.3846H45.4615V22.6154V25.8462V29.0769V32.3077V35.5385V38.7692H42.2308V42H39H35.7692V38.7692H32.5385V35.5385H29.3077V38.7692H26.0769V42H22.8462H19.6154V38.7692H16.3846V35.5385H13.1539V38.7692H9.92308V42H6.69231H3.46154V38.7692H0.230774V35.5385V32.3077V29.0769V25.8462V22.6154V19.3846H3.46154V16.1538V12.9231V9.69231H6.69231V12.9231V16.1538H9.92308V19.3846H13.1539H16.3846V16.1538H19.6154L19.6154 12.9231V9.69231L19.6154 6.46154H16.3846V3.23077V0Z" fill="#FF8303"/>
<path fill-rule="evenodd" clip-rule="evenodd" d="M32.5385 3.23077H35.7692V6.46154L39 6.46154V9.69231V12.9231V16.1539H35.7692V19.3846H32.5385H29.3077V16.1539H26.0769V12.9231V9.69231V6.46154H29.3077V3.23077H32.5385ZM16.3846 3.23077V6.46154H19.6154V9.69231V12.9231V16.1539H16.3846V19.3846H13.1539H9.92309V16.1539H6.69232V12.9231V9.69231V6.46154H9.92309V3.23077H13.1539H16.3846Z" fill="#FBFBFB"/>
<rect x="32.5385" y="9.69232" width="6.46154" height="6.46154" fill="#5757FF"/>
<rect x="13.1539" y="9.69232" width="6.46154" height="6.46154" fill="#5757FF"/>
</svg>
