<svg width="46" height="42" viewBox="0 0 46 42" fill="none" xmlns="http://www.w3.org/2000/svg">
<path fill-rule="evenodd" clip-rule="evenodd" d="M16.8462 0H20.077H23.3078H26.5385H29.7693V3.23077V6.46154H26.5385V9.69231V12.9231V16.1538H29.7693V19.3846H33.0001H36.2308L36.2308 16.1538H39.4616V12.9231V9.69231H42.6924V12.9231V16.1538V19.3846H45.9232V22.6154V25.8462V29.0769V32.3077V35.5385V38.7692H42.6924V42H39.4616H36.2308V38.7692H33.0001V35.5385H29.7693V38.7692H26.5385V42H23.3078H20.077V38.7692H16.8462V35.5385H13.6155V38.7692H10.3847V42H7.15392H3.92315V38.7692H0.692383V35.5385V32.3077V29.0769V25.8462V22.6154V19.3846H3.92315V16.1538V12.9231V9.69231H7.15392V12.9231V16.1538H10.3847V19.3846H13.6155H16.8462V16.1538H20.077L20.077 12.9231V9.69231L20.077 6.46154H16.8462V3.23077V0Z" fill="#57ABFF"/>
<path fill-rule="evenodd" clip-rule="evenodd" d="M33.0001 3.23077H36.2309V6.46154L39.4616 6.46154V9.69231V12.9231V16.1539H36.2309V19.3846H33.0001H29.7693V16.1539H26.5385V12.9231V9.69231V6.46154H29.7693V3.23077H33.0001ZM16.8462 3.23077V6.46154H20.077V9.69231V12.9231V16.1539H16.8462V19.3846H13.6155H10.3847V16.1539H7.15393V12.9231V9.69231V6.46154H10.3847V3.23077H13.6155H16.8462Z" fill="#FBFBFB"/>
<rect x="26" y="9.69232" width="6.46154" height="6.46154" fill="#5757FF"/>
<rect x="6.61548" y="9.69232" width="6.46154" height="6.46154" fill="#5757FF"/>
</svg>
