<svg width="173" height="160" viewBox="0 0 173 160" fill="none" xmlns="http://www.w3.org/2000/svg">
<path fill-rule="evenodd" clip-rule="evenodd" d="M61.5385 0H73.8462H86.1538H98.4615H110.769V12.3077V24.6154H98.4615V36.9231V49.2308V61.5385H110.769V73.8462H123.077H135.385V61.5385H147.692V49.2308V36.9231H160V49.2308V61.5385V73.8462H172.308V86.1538V98.4615V110.769V123.077V135.385V147.692H160V160H147.692H135.385V147.692H123.077L123.077 135.385H110.769V147.692H98.4615V160H86.1538H73.8462V147.692H61.5385L61.5385 135.385H49.2308V147.692H36.9231V160H24.6154H12.3077V147.692H0V135.385V123.077V110.769V98.4615V86.1538V73.8462H12.3077V61.5385V49.2308V36.9231H24.6154V49.2308V61.5385H36.9231V73.8462H49.2308H61.5385V61.5385H73.8462V49.2308V36.9231V24.6154H61.5385V12.3077V0Z" fill="#FF8303"/>
<path fill-rule="evenodd" clip-rule="evenodd" d="M123.077 12.3077H135.384V24.6154H147.692V36.9231V49.2308V61.5385H135.384V73.8462H123.077H110.769V61.5385H98.4614V49.2308V36.9231V24.6154H110.769V12.3077H123.077ZM61.5383 12.3077V24.6154H73.846V36.9231V49.2308V61.5385H61.5383V73.8462H49.2306H36.9229V61.5385H24.6152V49.2308V36.9231V24.6154H36.9229V12.3077H49.2306H61.5383Z" fill="#FBFBFB"/>
<rect x="98.3999" y="37" width="24.6154" height="24.6154" fill="#5757FF"/>
<rect x="24.5" y="37" width="24.6154" height="24.6154" fill="#5757FF"/>
</svg>
