<svg width="46" height="42" viewBox="0 0 46 42" fill="none" xmlns="http://www.w3.org/2000/svg">
<path fill-rule="evenodd" clip-rule="evenodd" d="M16.1538 0H19.3846H22.6154H25.8462H29.0769V3.23077V6.46154H25.8462V9.69231V12.9231V16.1538H29.0769V19.3846H32.3077H35.5385L35.5385 16.1538H38.7692V12.9231V9.69231H42V12.9231V16.1538V19.3846H45.2308V22.6154V25.8462V29.0769V32.3077V35.5385V38.7692H42V42H38.7692H35.5385V38.7692H32.3077V35.5385H29.0769V38.7692H25.8462V42H22.6154H19.3846V38.7692H16.1538V35.5385H12.9231V38.7692H9.69231V42H6.46154H3.23077V38.7692H0V35.5385V32.3077V29.0769V25.8462V22.6154V19.3846H3.23077V16.1538V12.9231V9.69231H6.46154V12.9231V16.1538H9.69231V19.3846H12.9231H16.1538V16.1538H19.3846L19.3846 12.9231V9.69231L19.3846 6.46154H16.1538V3.23077V0Z" fill="#FF5703"/>
<path fill-rule="evenodd" clip-rule="evenodd" d="M32.3077 3.23077H35.5385V6.46154L38.7692 6.46154V9.69231V12.9231V16.1539H35.5385V19.3846H32.3077H29.0769V16.1539H25.8462V12.9231V9.69231V6.46154H29.0769V3.23077H32.3077ZM16.1539 3.23077V6.46154H19.3846V9.69231V12.9231V16.1539H16.1539V19.3846H12.9231H9.69232V16.1539H6.46155V12.9231V9.69231V6.46154H9.69232V3.23077H12.9231H16.1539Z" fill="#FBFBFB"/>
<rect x="29.0769" y="3.23077" width="6.46154" height="6.46154" fill="#5757FF"/>
<rect x="9.69232" y="3.23077" width="6.46154" height="6.46154" fill="#5757FF"/>
</svg>
