<svg width="145" height="345" viewBox="0 0 145 345" fill="none" xmlns="http://www.w3.org/2000/svg">
<rect x="5" y="45" width="5" height="5" fill="#FFABFF"/>
<rect x="10" y="45" width="5" height="5" fill="#FFABFF"/>
<rect x="15" y="45" width="5" height="5" fill="#FFABFF"/>
<rect x="5" y="75" width="5" height="5" fill="#FFABFF"/>
<rect x="10" y="75" width="5" height="5" fill="#FFABFF"/>
<rect x="15" y="75" width="5" height="5" fill="#FFABFF"/>
<rect x="5" y="60" width="5" height="5" fill="#FFABFF"/>
<rect x="10" y="60" width="5" height="5" fill="#FFABFF"/>
<rect x="15" y="60" width="5" height="5" fill="#FFABFF"/>
<rect x="20" y="50" width="5" height="5" fill="#FFABFF"/>
<rect y="50" width="5" height="5" fill="#FFABFF"/>
<rect x="5" y="50" width="5" height="5" fill="#FFABFF"/>
<rect y="55" width="5" height="5" fill="#FFABFF"/>
<rect x="5" y="55" width="5" height="5" fill="#FFABFF"/>
<rect x="15" y="65" width="5" height="5" fill="#FFABFF"/>
<rect x="20" y="65" width="5" height="5" fill="#FFABFF"/>
<rect x="15" y="70" width="5" height="5" fill="#FFABFF"/>
<rect x="20" y="70" width="5" height="5" fill="#FFABFF"/>
<rect x="15" y="50" width="5" height="5" fill="#FFABFF"/>
<rect x="5" y="70" width="5" height="5" fill="#FFABFF"/>
<rect y="70" width="5" height="5" fill="#FFABFF"/>
<rect x="65" y="45" width="5" height="5" fill="#FFABFF"/>
<rect x="70" y="45" width="5" height="5" fill="#FFABFF"/>
<rect x="75" y="45" width="5" height="5" fill="#FFABFF"/>
<rect x="80" y="50" width="5" height="5" fill="#FFABFF"/>
<rect x="60" y="50" width="5" height="5" fill="#FFABFF"/>
<rect x="65" y="50" width="5" height="5" fill="#FFABFF"/>
<rect x="75" y="50" width="5" height="5" fill="#FFABFF"/>
<rect x="80" y="55" width="5" height="5" fill="#FFABFF"/>
<rect x="60" y="55" width="5" height="5" fill="#FFABFF"/>
<rect x="65" y="55" width="5" height="5" fill="#FFABFF"/>
<rect x="75" y="55" width="5" height="5" fill="#FFABFF"/>
<rect x="80" y="65" width="5" height="5" fill="#FFABFF"/>
<rect x="60" y="65" width="5" height="5" fill="#FFABFF"/>
<rect x="65" y="65" width="5" height="5" fill="#FFABFF"/>
<rect x="75" y="65" width="5" height="5" fill="#FFABFF"/>
<rect x="80" y="70" width="5" height="5" fill="#FFABFF"/>
<rect x="60" y="70" width="5" height="5" fill="#FFABFF"/>
<rect x="65" y="70" width="5" height="5" fill="#FFABFF"/>
<rect x="75" y="70" width="5" height="5" fill="#FFABFF"/>
<rect x="70" y="75" width="5" height="5" fill="#FFABFF"/>
<rect x="65" y="75" width="5" height="5" fill="#FFABFF"/>
<rect x="75" y="75" width="5" height="5" fill="#FFABFF"/>
<rect x="80" y="60" width="5" height="5" fill="#FFABFF"/>
<rect x="60" y="60" width="5" height="5" fill="#FFABFF"/>
<rect x="65" y="60" width="5" height="5" fill="#FFABFF"/>
<rect x="75" y="60" width="5" height="5" fill="#FFABFF"/>
<rect x="90" y="45" width="5" height="5" fill="#FFABFF"/>
<rect x="90" y="50" width="5" height="5" fill="#FFABFF"/>
<rect x="90" y="70" width="5" height="5" fill="#FFABFF"/>
<rect x="90" y="75" width="5" height="5" fill="#FFABFF"/>
<rect x="90" y="55" width="5" height="5" fill="#FFABFF"/>
<rect x="90" y="60" width="5" height="5" fill="#FFABFF"/>
<rect x="90" y="65" width="5" height="5" fill="#FFABFF"/>
<rect x="95" y="45" width="5" height="5" fill="#FFABFF"/>
<rect x="105" y="50" width="5" height="5" fill="#FFABFF"/>
<rect x="110" y="50" width="5" height="5" fill="#FFABFF"/>
<rect x="100" y="65" width="5" height="5" fill="#FFABFF"/>
<rect x="105" y="65" width="5" height="5" fill="#FFABFF"/>
<rect x="105" y="60" width="5" height="5" fill="#FFABFF"/>
<rect x="110" y="60" width="5" height="5" fill="#FFABFF"/>
<rect x="105" y="55" width="5" height="5" fill="#FFABFF"/>
<rect x="110" y="55" width="5" height="5" fill="#FFABFF"/>
<rect x="105" y="75" width="5" height="5" fill="#FFABFF"/>
<rect x="110" y="75" width="5" height="5" fill="#FFABFF"/>
<rect x="105" y="70" width="5" height="5" fill="#FFABFF"/>
<rect x="110" y="70" width="5" height="5" fill="#FFABFF"/>
<rect x="100" y="45" width="5" height="5" fill="#FFABFF"/>
<rect x="105" y="45" width="5" height="5" fill="#FFABFF"/>
<rect x="95" y="50" width="5" height="5" fill="#FFABFF"/>
<rect x="95" y="70" width="5" height="5" fill="#FFABFF"/>
<rect x="95" y="75" width="5" height="5" fill="#FFABFF"/>
<rect x="95" y="55" width="5" height="5" fill="#FFABFF"/>
<rect x="95" y="60" width="5" height="5" fill="#FFABFF"/>
<rect x="95" y="65" width="5" height="5" fill="#FFABFF"/>
<rect x="95" y="45" width="5" height="5" fill="#FFABFF"/>
<rect x="95" y="50" width="5" height="5" fill="#FFABFF"/>
<rect x="95" y="70" width="5" height="5" fill="#FFABFF"/>
<rect x="95" y="75" width="5" height="5" fill="#FFABFF"/>
<rect x="95" y="55" width="5" height="5" fill="#FFABFF"/>
<rect x="95" y="60" width="5" height="5" fill="#FFABFF"/>
<rect x="95" y="65" width="5" height="5" fill="#FFABFF"/>
<rect x="130" y="45" width="5" height="5" fill="#FFABFF"/>
<rect x="130" y="75" width="5" height="5" fill="#FFABFF"/>
<rect x="130" y="60" width="5" height="5" fill="#FFABFF"/>
<rect x="135" y="45" width="5" height="5" fill="#FFABFF"/>
<rect x="135" y="75" width="5" height="5" fill="#FFABFF"/>
<rect x="140" y="45" width="5" height="5" fill="#FFABFF"/>
<rect x="140" y="75" width="5" height="5" fill="#FFABFF"/>
<rect x="135" y="60" width="5" height="5" fill="#FFABFF"/>
<rect x="125" y="45" width="5" height="5" fill="#FFABFF"/>
<rect x="125" y="50" width="5" height="5" fill="#FFABFF"/>
<rect x="125" y="70" width="5" height="5" fill="#FFABFF"/>
<rect x="125" y="75" width="5" height="5" fill="#FFABFF"/>
<rect x="125" y="55" width="5" height="5" fill="#FFABFF"/>
<rect x="125" y="60" width="5" height="5" fill="#FFABFF"/>
<rect x="125" y="65" width="5" height="5" fill="#FFABFF"/>
<rect x="120" y="45" width="5" height="5" fill="#FFABFF"/>
<rect x="120" y="50" width="5" height="5" fill="#FFABFF"/>
<rect x="120" y="70" width="5" height="5" fill="#FFABFF"/>
<rect x="120" y="75" width="5" height="5" fill="#FFABFF"/>
<rect x="120" y="55" width="5" height="5" fill="#FFABFF"/>
<rect x="120" y="60" width="5" height="5" fill="#FFABFF"/>
<rect x="120" y="65" width="5" height="5" fill="#FFABFF"/>
<rect x="50" y="50" width="5" height="5" fill="#FFABFF"/>
<rect x="35" y="45" width="5" height="5" fill="#FFABFF"/>
<rect x="40" y="45" width="5" height="5" fill="#FFABFF"/>
<rect x="30" y="55" width="5" height="5" fill="#FFABFF"/>
<rect x="35" y="55" width="5" height="5" fill="#FFABFF"/>
<rect x="30" y="50" width="5" height="5" fill="#FFABFF"/>
<rect x="35" y="50" width="5" height="5" fill="#FFABFF"/>
<rect x="30" y="65" width="5" height="5" fill="#FFABFF"/>
<rect x="35" y="65" width="5" height="5" fill="#FFABFF"/>
<rect x="30" y="60" width="5" height="5" fill="#FFABFF"/>
<rect x="35" y="60" width="5" height="5" fill="#FFABFF"/>
<rect x="45" y="45" width="5" height="5" fill="#FFABFF"/>
<rect x="35" y="75" width="5" height="5" fill="#FFABFF"/>
<rect x="40" y="75" width="5" height="5" fill="#FFABFF"/>
<rect x="45" y="75" width="5" height="5" fill="#FFABFF"/>
<rect x="45" y="50" width="5" height="5" fill="#FFABFF"/>
<rect x="30" y="70" width="5" height="5" fill="#FFABFF"/>
<rect x="35" y="70" width="5" height="5" fill="#FFABFF"/>
<rect x="50" y="70" width="5" height="5" fill="#FFABFF"/>
<rect x="45" y="70" width="5" height="5" fill="#FFABFF"/>
<rect x="23" width="5" height="5" fill="#FFABFF"/>
<rect x="23" y="5" width="5" height="5" fill="#FFABFF"/>
<rect x="23" y="25" width="5" height="5" fill="#FFABFF"/>
<rect x="23" y="30" width="5" height="5" fill="#FFABFF"/>
<rect x="23" y="10" width="5" height="5" fill="#FFABFF"/>
<rect x="23" y="15" width="5" height="5" fill="#FFABFF"/>
<rect x="23" y="20" width="5" height="5" fill="#FFABFF"/>
<rect x="28" width="5" height="5" fill="#FFABFF"/>
<rect x="28" y="5" width="5" height="5" fill="#FFABFF"/>
<rect x="28" y="25" width="5" height="5" fill="#FFABFF"/>
<rect x="28" y="30" width="5" height="5" fill="#FFABFF"/>
<rect x="28" y="10" width="5" height="5" fill="#FFABFF"/>
<rect x="28" y="15" width="5" height="5" fill="#FFABFF"/>
<rect x="33" y="15" width="5" height="5" fill="#FFABFF"/>
<rect x="28" y="20" width="5" height="5" fill="#FFABFF"/>
<rect x="38" width="5" height="5" fill="#FFABFF"/>
<rect x="38" y="5" width="5" height="5" fill="#FFABFF"/>
<rect x="38" y="25" width="5" height="5" fill="#FFABFF"/>
<rect x="38" y="30" width="5" height="5" fill="#FFABFF"/>
<rect x="38" y="10" width="5" height="5" fill="#FFABFF"/>
<rect x="38" y="15" width="5" height="5" fill="#FFABFF"/>
<rect x="38" y="20" width="5" height="5" fill="#FFABFF"/>
<rect x="43" width="5" height="5" fill="#FFABFF"/>
<rect x="43" y="5" width="5" height="5" fill="#FFABFF"/>
<rect x="43" y="25" width="5" height="5" fill="#FFABFF"/>
<rect x="43" y="30" width="5" height="5" fill="#FFABFF"/>
<rect x="43" y="10" width="5" height="5" fill="#FFABFF"/>
<rect x="43" y="15" width="5" height="5" fill="#FFABFF"/>
<rect x="43" y="20" width="5" height="5" fill="#FFABFF"/>
<rect x="98" width="5" height="5" fill="#FFABFF"/>
<rect x="98" y="5" width="5" height="5" fill="#FFABFF"/>
<rect x="98" y="25" width="5" height="5" fill="#FFABFF"/>
<rect x="98" y="30" width="5" height="5" fill="#FFABFF"/>
<rect x="98" y="10" width="5" height="5" fill="#FFABFF"/>
<rect x="98" y="15" width="5" height="5" fill="#FFABFF"/>
<rect x="98" y="20" width="5" height="5" fill="#FFABFF"/>
<rect x="103" width="5" height="5" fill="#FFABFF"/>
<rect x="103" y="5" width="5" height="5" fill="#FFABFF"/>
<rect x="103" y="25" width="5" height="5" fill="#FFABFF"/>
<rect x="103" y="30" width="5" height="5" fill="#FFABFF"/>
<rect x="103" y="10" width="5" height="5" fill="#FFABFF"/>
<rect x="103" y="15" width="5" height="5" fill="#FFABFF"/>
<rect x="108" y="15" width="5" height="5" fill="#FFABFF"/>
<rect x="103" y="20" width="5" height="5" fill="#FFABFF"/>
<rect x="113" width="5" height="5" fill="#FFABFF"/>
<rect x="113" y="5" width="5" height="5" fill="#FFABFF"/>
<rect x="113" y="25" width="5" height="5" fill="#FFABFF"/>
<rect x="113" y="30" width="5" height="5" fill="#FFABFF"/>
<rect x="113" y="10" width="5" height="5" fill="#FFABFF"/>
<rect x="113" y="15" width="5" height="5" fill="#FFABFF"/>
<rect x="113" y="20" width="5" height="5" fill="#FFABFF"/>
<rect x="118" width="5" height="5" fill="#FFABFF"/>
<rect x="118" y="5" width="5" height="5" fill="#FFABFF"/>
<rect x="118" y="25" width="5" height="5" fill="#FFABFF"/>
<rect x="118" y="30" width="5" height="5" fill="#FFABFF"/>
<rect x="118" y="10" width="5" height="5" fill="#FFABFF"/>
<rect x="118" y="15" width="5" height="5" fill="#FFABFF"/>
<rect x="118" y="20" width="5" height="5" fill="#FFABFF"/>
<rect x="53" width="5" height="5" fill="#FFABFF"/>
<rect x="53" y="5" width="5" height="5" fill="#FFABFF"/>
<rect x="53" y="25" width="5" height="5" fill="#FFABFF"/>
<rect x="53" y="30" width="5" height="5" fill="#FFABFF"/>
<rect x="53" y="10" width="5" height="5" fill="#FFABFF"/>
<rect x="53" y="15" width="5" height="5" fill="#FFABFF"/>
<rect x="53" y="20" width="5" height="5" fill="#FFABFF"/>
<rect x="58" width="5" height="5" fill="#FFABFF"/>
<rect x="58" y="5" width="5" height="5" fill="#FFABFF"/>
<rect x="58" y="25" width="5" height="5" fill="#FFABFF"/>
<rect x="58" y="30" width="5" height="5" fill="#FFABFF"/>
<rect x="58" y="10" width="5" height="5" fill="#FFABFF"/>
<rect x="58" y="15" width="5" height="5" fill="#FFABFF"/>
<rect x="58" y="20" width="5" height="5" fill="#FFABFF"/>
<rect x="68" y="5" width="5" height="5" fill="#FFABFF"/>
<rect x="68" y="25" width="5" height="5" fill="#FFABFF"/>
<rect x="68" y="10" width="5" height="5" fill="#FFABFF"/>
<rect x="68" y="15" width="5" height="5" fill="#FFABFF"/>
<rect x="68" y="20" width="5" height="5" fill="#FFABFF"/>
<rect x="73" width="5" height="5" fill="#FFABFF"/>
<rect x="73" y="5" width="5" height="5" fill="#FFABFF"/>
<rect x="83" y="5" width="5" height="5" fill="#FFABFF"/>
<rect x="88" y="5" width="5" height="5" fill="#FFABFF"/>
<rect x="78" width="5" height="5" fill="#FFABFF"/>
<rect x="83" width="5" height="5" fill="#FFABFF"/>
<rect x="78" y="30" width="5" height="5" fill="#FFABFF"/>
<rect x="83" y="30" width="5" height="5" fill="#FFABFF"/>
<rect x="73" y="25" width="5" height="5" fill="#FFABFF"/>
<rect x="73" y="30" width="5" height="5" fill="#FFABFF"/>
<rect x="73" y="10" width="5" height="5" fill="#FFABFF"/>
<rect x="73" y="15" width="5" height="5" fill="#FFABFF"/>
<rect x="73" y="20" width="5" height="5" fill="#FFABFF"/>
<rect x="83" y="25" width="5" height="5" fill="#FFABFF"/>
<rect x="83" y="15" width="5" height="5" fill="#FFABFF"/>
<rect x="83" y="20" width="5" height="5" fill="#FFABFF"/>
<rect x="88" y="25" width="5" height="5" fill="#FFABFF"/>
<rect x="88" y="15" width="5" height="5" fill="#FFABFF"/>
<rect x="88" y="20" width="5" height="5" fill="#FFABFF"/>
<rect x="68" y="130" width="5" height="5" fill="white"/>
<rect x="63" y="130" width="5" height="5" fill="white"/>
<rect x="78" y="130" width="5" height="5" fill="white"/>
<rect x="73" y="130" width="5" height="5" fill="white"/>
<rect x="68" y="160" width="5" height="5" fill="white"/>
<rect x="63" y="160" width="5" height="5" fill="white"/>
<rect x="78" y="160" width="5" height="5" fill="white"/>
<rect x="73" y="160" width="5" height="5" fill="white"/>
<rect x="63" y="135" width="5" height="5" fill="white"/>
<rect x="58" y="135" width="5" height="5" fill="white"/>
<rect x="63" y="140" width="5" height="5" fill="white"/>
<rect x="58" y="140" width="5" height="5" fill="white"/>
<rect x="63" y="145" width="5" height="5" fill="white"/>
<rect x="58" y="145" width="5" height="5" fill="white"/>
<rect x="83" y="135" width="5" height="5" fill="white"/>
<rect x="78" y="135" width="5" height="5" fill="white"/>
<rect x="83" y="140" width="5" height="5" fill="white"/>
<rect x="78" y="140" width="5" height="5" fill="white"/>
<rect x="83" y="145" width="5" height="5" fill="white"/>
<rect x="78" y="145" width="5" height="5" fill="white"/>
<rect x="63" y="150" width="5" height="5" fill="white"/>
<rect x="58" y="150" width="5" height="5" fill="white"/>
<rect x="83" y="150" width="5" height="5" fill="white"/>
<rect x="78" y="150" width="5" height="5" fill="white"/>
<rect x="63" y="155" width="5" height="5" fill="white"/>
<rect x="58" y="155" width="5" height="5" fill="white"/>
<rect x="83" y="155" width="5" height="5" fill="white"/>
<rect x="78" y="155" width="5" height="5" fill="white"/>
<rect x="68" y="175" width="5" height="5" fill="white"/>
<rect x="63" y="175" width="5" height="5" fill="white"/>
<rect x="78" y="175" width="5" height="5" fill="white"/>
<rect x="73" y="175" width="5" height="5" fill="white"/>
<rect x="68" y="205" width="5" height="5" fill="white"/>
<rect x="63" y="205" width="5" height="5" fill="white"/>
<rect x="78" y="205" width="5" height="5" fill="white"/>
<rect x="73" y="205" width="5" height="5" fill="white"/>
<rect x="63" y="180" width="5" height="5" fill="white"/>
<rect x="58" y="180" width="5" height="5" fill="white"/>
<rect x="63" y="185" width="5" height="5" fill="white"/>
<rect x="58" y="185" width="5" height="5" fill="white"/>
<rect x="63" y="190" width="5" height="5" fill="white"/>
<rect x="58" y="190" width="5" height="5" fill="white"/>
<rect x="83" y="180" width="5" height="5" fill="white"/>
<rect x="78" y="180" width="5" height="5" fill="white"/>
<rect x="83" y="185" width="5" height="5" fill="white"/>
<rect x="78" y="185" width="5" height="5" fill="white"/>
<rect x="83" y="190" width="5" height="5" fill="white"/>
<rect x="78" y="190" width="5" height="5" fill="white"/>
<rect x="63" y="195" width="5" height="5" fill="white"/>
<rect x="58" y="195" width="5" height="5" fill="white"/>
<rect x="83" y="195" width="5" height="5" fill="white"/>
<rect x="78" y="195" width="5" height="5" fill="white"/>
<rect x="63" y="200" width="5" height="5" fill="white"/>
<rect x="58" y="200" width="5" height="5" fill="white"/>
<rect x="83" y="200" width="5" height="5" fill="white"/>
<rect x="78" y="200" width="5" height="5" fill="white"/>
<rect x="68" y="220" width="5" height="5" fill="white"/>
<rect x="63" y="220" width="5" height="5" fill="white"/>
<rect x="78" y="220" width="5" height="5" fill="white"/>
<rect x="73" y="220" width="5" height="5" fill="white"/>
<rect x="68" y="250" width="5" height="5" fill="white"/>
<rect x="63" y="250" width="5" height="5" fill="white"/>
<rect x="78" y="250" width="5" height="5" fill="white"/>
<rect x="73" y="250" width="5" height="5" fill="white"/>
<rect x="63" y="225" width="5" height="5" fill="white"/>
<rect x="58" y="225" width="5" height="5" fill="white"/>
<rect x="63" y="230" width="5" height="5" fill="white"/>
<rect x="58" y="230" width="5" height="5" fill="white"/>
<rect x="63" y="235" width="5" height="5" fill="white"/>
<rect x="58" y="235" width="5" height="5" fill="white"/>
<rect x="83" y="225" width="5" height="5" fill="white"/>
<rect x="78" y="225" width="5" height="5" fill="white"/>
<rect x="83" y="230" width="5" height="5" fill="white"/>
<rect x="78" y="230" width="5" height="5" fill="white"/>
<rect x="83" y="235" width="5" height="5" fill="white"/>
<rect x="78" y="235" width="5" height="5" fill="white"/>
<rect x="63" y="240" width="5" height="5" fill="white"/>
<rect x="58" y="240" width="5" height="5" fill="white"/>
<rect x="83" y="240" width="5" height="5" fill="white"/>
<rect x="78" y="240" width="5" height="5" fill="white"/>
<rect x="63" y="245" width="5" height="5" fill="white"/>
<rect x="58" y="245" width="5" height="5" fill="white"/>
<rect x="83" y="245" width="5" height="5" fill="white"/>
<rect x="78" y="245" width="5" height="5" fill="white"/>
<rect x="68" y="265" width="5" height="5" fill="white"/>
<rect x="63" y="265" width="5" height="5" fill="white"/>
<rect x="78" y="265" width="5" height="5" fill="white"/>
<rect x="73" y="265" width="5" height="5" fill="white"/>
<rect x="68" y="295" width="5" height="5" fill="white"/>
<rect x="63" y="295" width="5" height="5" fill="white"/>
<rect x="78" y="295" width="5" height="5" fill="white"/>
<rect x="73" y="295" width="5" height="5" fill="white"/>
<rect x="63" y="270" width="5" height="5" fill="white"/>
<rect x="58" y="270" width="5" height="5" fill="white"/>
<rect x="63" y="275" width="5" height="5" fill="white"/>
<rect x="58" y="275" width="5" height="5" fill="white"/>
<rect x="63" y="280" width="5" height="5" fill="white"/>
<rect x="58" y="280" width="5" height="5" fill="white"/>
<rect x="83" y="270" width="5" height="5" fill="white"/>
<rect x="78" y="270" width="5" height="5" fill="white"/>
<rect x="83" y="275" width="5" height="5" fill="white"/>
<rect x="78" y="275" width="5" height="5" fill="white"/>
<rect x="83" y="280" width="5" height="5" fill="white"/>
<rect x="78" y="280" width="5" height="5" fill="white"/>
<rect x="63" y="285" width="5" height="5" fill="white"/>
<rect x="58" y="285" width="5" height="5" fill="white"/>
<rect x="83" y="285" width="5" height="5" fill="white"/>
<rect x="78" y="285" width="5" height="5" fill="white"/>
<rect x="63" y="290" width="5" height="5" fill="white"/>
<rect x="58" y="290" width="5" height="5" fill="white"/>
<rect x="83" y="290" width="5" height="5" fill="white"/>
<rect x="78" y="290" width="5" height="5" fill="white"/>
<rect x="68" y="310" width="5" height="5" fill="white"/>
<rect x="63" y="310" width="5" height="5" fill="white"/>
<rect x="78" y="310" width="5" height="5" fill="white"/>
<rect x="73" y="310" width="5" height="5" fill="white"/>
<rect x="68" y="340" width="5" height="5" fill="white"/>
<rect x="63" y="340" width="5" height="5" fill="white"/>
<rect x="78" y="340" width="5" height="5" fill="white"/>
<rect x="73" y="340" width="5" height="5" fill="white"/>
<rect x="63" y="315" width="5" height="5" fill="white"/>
<rect x="58" y="315" width="5" height="5" fill="white"/>
<rect x="63" y="320" width="5" height="5" fill="white"/>
<rect x="58" y="320" width="5" height="5" fill="white"/>
<rect x="63" y="325" width="5" height="5" fill="white"/>
<rect x="58" y="325" width="5" height="5" fill="white"/>
<rect x="83" y="315" width="5" height="5" fill="white"/>
<rect x="78" y="315" width="5" height="5" fill="white"/>
<rect x="83" y="320" width="5" height="5" fill="white"/>
<rect x="78" y="320" width="5" height="5" fill="white"/>
<rect x="83" y="325" width="5" height="5" fill="white"/>
<rect x="78" y="325" width="5" height="5" fill="white"/>
<rect x="63" y="330" width="5" height="5" fill="white"/>
<rect x="58" y="330" width="5" height="5" fill="white"/>
<rect x="83" y="330" width="5" height="5" fill="white"/>
<rect x="78" y="330" width="5" height="5" fill="white"/>
<rect x="63" y="335" width="5" height="5" fill="white"/>
<rect x="58" y="335" width="5" height="5" fill="white"/>
<rect x="83" y="335" width="5" height="5" fill="white"/>
<rect x="78" y="335" width="5" height="5" fill="white"/>
</svg>
