<svg width="145" height="161" viewBox="0 0 145 161" fill="none" xmlns="http://www.w3.org/2000/svg">
<path fill-rule="evenodd" clip-rule="evenodd" d="M82.0902 85.2742C85.811 83.4414 85.811 78.1363 82.0902 76.3035L3.59459 37.6381C0.858776 36.2904 -0.0510033 32.8197 1.85465 30.4387C16.5448 12.0841 39.1371 0.3286 64.475 0.328597C108.748 0.328594 144.638 36.2189 144.638 80.4919C144.638 124.765 108.748 160.655 64.475 160.655C39.3447 160.655 16.9153 149.092 2.21743 130.995C0.286218 128.617 1.18893 125.125 3.93687 123.771L82.0902 85.2742ZM53.2028 41.1222C59.256 44.4414 66.8539 42.2251 70.1731 36.1718C72.4485 32.0223 67.896 31.5284 63.8188 31.086C61.9483 30.8831 60.1779 30.691 59.2128 30.1618C58.2476 29.6326 57.1338 28.2431 55.957 26.7751C53.3919 23.5752 50.5277 20.0023 48.2524 24.1518C44.9331 30.2051 47.1495 37.803 53.2028 41.1222Z" fill="#FFFF57"/>
</svg>
